<?xml version="1.0" standalone="no"?>
<!DOCTYPE svg PUBLIC "-//W3C//DTD SVG 20010904//EN"
 "http://www.w3.org/TR/2001/REC-SVG-20010904/DTD/svg10.dtd">
<svg version="1.0" xmlns="http://www.w3.org/2000/svg"
 width="328.000000pt" height="327.000000pt" viewBox="0 0 328.000000 327.000000"
 preserveAspectRatio="xMidYMid meet">
<metadata>
Created by potrace 1.16, written by Peter Selinger 2001-2019
</metadata>
<g transform="translate(0.000000,327.000000) scale(0.100000,-0.100000)"
fill="#000000" stroke="none">
<path d="M2326 784 c-4 -9 -4 -19 -1 -23 8 -7 38 12 43 27 6 19 -35 14 -42 -4z"/>
<path d="M240 775 c0 -11 11 -15 40 -15 l40 0 0 -95 c0 -88 1 -95 20 -95 19 0
20 7 20 95 l0 95 35 0 c24 0 35 5 35 15 0 12 -17 15 -95 15 -78 0 -95 -3 -95
-15z"/>
<path d="M1160 680 c0 -91 3 -110 15 -110 12 0 15 19 15 110 0 91 -3 110 -15
110 -12 0 -15 -19 -15 -110z"/>
<path d="M1627 783 c-12 -11 -7 -33 7 -33 12 0 26 20 26 36 0 7 -26 5 -33 -3z"/>
<path d="M1970 680 c0 -103 1 -110 20 -110 17 0 19 8 22 81 l3 81 32 -46 c18
-25 36 -46 41 -46 5 0 24 21 43 46 l34 46 3 -81 c3 -73 5 -81 22 -81 19 0 20
7 20 110 0 110 0 110 -24 110 -18 0 -34 -13 -57 -45 -18 -25 -36 -45 -40 -45
-4 0 -22 20 -40 45 -22 31 -40 45 -56 45 -23 0 -23 -1 -23 -110z"/>
<path d="M2624 779 c-8 -14 11 -33 25 -25 16 10 13 36 -3 36 -8 0 -18 -5 -22
-11z"/>
<path d="M1546 733 c-4 -4 -22 -6 -41 -4 -26 2 -41 -4 -60 -23 -49 -49 -24
-121 46 -132 47 -8 67 -34 43 -58 -20 -20 -48 -20 -68 -1 -17 17 -46 20 -46 5
0 -24 41 -50 80 -50 67 0 105 63 64 105 -15 15 -15 17 0 34 27 30 9 151 -18
124z m-10 -58 c15 -23 15 -27 0 -50 -9 -14 -25 -25 -36 -25 -11 0 -27 11 -36
25 -15 23 -15 27 0 50 9 14 25 25 36 25 11 0 27 -11 36 -25z"/>
<path d="M453 720 c-40 -16 -58 -86 -30 -123 17 -24 66 -35 105 -25 27 7 31
12 22 23 -8 10 -18 11 -34 5 -25 -9 -71 8 -65 25 2 6 30 10 62 10 55 0 57 1
57 27 0 49 -62 80 -117 58z m75 -32 c21 -21 13 -28 -33 -28 -25 0 -45 4 -45 8
0 15 24 32 45 32 12 0 26 -5 33 -12z"/>
<path d="M643 720 c-39 -16 -56 -77 -33 -120 14 -27 71 -43 104 -30 39 14 28
36 -16 32 -28 -3 -39 2 -51 18 -28 41 7 87 57 74 30 -7 43 12 17 25 -23 13
-48 13 -78 1z"/>
<path d="M835 720 c-11 -4 -30 -6 -42 -3 -22 5 -23 3 -23 -71 0 -61 3 -76 15
-76 11 0 15 12 15 45 0 43 24 85 49 85 24 0 41 -34 41 -81 0 -43 2 -49 21 -49
21 0 21 4 16 61 -3 34 -11 67 -19 74 -19 18 -50 25 -73 15z"/>
<path d="M1005 719 c-49 -28 -61 -88 -25 -127 27 -29 99 -31 123 -4 23 25 22
94 -1 115 -24 22 -72 30 -97 16z m63 -35 c24 -17 29 -53 10 -72 -7 -7 -25 -12
-40 -12 -59 0 -57 90 2 99 3 1 16 -6 28 -15z"/>
<path d="M1273 720 c-27 -11 -43 -40 -43 -79 0 -44 31 -71 80 -71 51 0 80 27
80 74 0 61 -60 100 -117 76z m67 -40 c23 -23 24 -33 10 -61 -21 -39 -90 -16
-90 30 0 14 37 51 50 51 6 0 19 -9 30 -20z"/>
<path d="M1723 718 c-55 -27 -48 -118 12 -147 25 -12 32 -12 57 2 15 9 28 12
28 7 0 -6 9 -10 20 -10 18 0 20 7 20 75 l0 75 -27 -1 c-16 -1 -41 1 -58 5 -16
3 -40 0 -52 -6z m79 -35 c26 -23 23 -59 -7 -79 -23 -15 -27 -15 -50 0 -29 19
-32 51 -8 78 20 22 41 23 65 1z"/>
<path d="M2293 720 c-40 -16 -58 -86 -30 -123 17 -24 66 -35 105 -25 27 7 31
12 22 23 -8 9 -19 11 -33 6 -28 -11 -67 4 -67 25 0 13 10 15 60 12 59 -3 60
-3 60 24 0 49 -62 80 -117 58z m75 -32 c21 -21 13 -28 -33 -28 -25 0 -45 4
-45 8 0 15 24 32 45 32 12 0 26 -5 33 -12z"/>
<path d="M2734 718 c-23 -11 -44 -48 -44 -77 0 -26 36 -68 64 -75 31 -8 79 10
73 27 -2 7 -17 11 -36 9 -18 -2 -39 2 -47 8 -36 31 1 97 49 85 31 -8 45 10 18
24 -24 13 -49 13 -77 -1z"/>
<path d="M2903 720 c-27 -11 -43 -40 -43 -79 0 -44 31 -71 80 -71 51 0 80 27
80 74 0 61 -60 100 -117 76z m67 -40 c23 -23 24 -33 10 -61 -21 -39 -90 -16
-90 30 0 14 37 51 50 51 6 0 19 -9 30 -20z"/>
<path d="M1610 645 c0 -68 2 -75 20 -75 18 0 20 7 20 75 0 68 -2 75 -20 75
-18 0 -20 -7 -20 -75z"/>
<path d="M2466 685 l27 -36 -27 -37 c-23 -33 -24 -37 -9 -41 10 -2 26 8 39 24
l21 27 20 -27 c11 -16 27 -26 36 -24 15 4 14 9 -8 42 l-26 37 27 35 26 35 -24
0 c-17 0 -29 -8 -37 -27 l-13 -27 -16 27 c-10 17 -25 27 -40 27 l-23 0 27 -35z"/>
<path d="M2620 645 c0 -68 2 -75 20 -75 18 0 20 7 20 75 0 68 -2 75 -20 75
-18 0 -20 -7 -20 -75z"/>
<path d="M593 340 c0 -41 2 -58 4 -37 2 20 2 54 0 75 -2 20 -4 3 -4 -38z"/>
<path d="M2353 340 c0 -41 2 -58 4 -37 2 20 2 54 0 75 -2 20 -4 3 -4 -38z"/>
<path d="M2700 385 c0 -14 -6 -25 -12 -25 -10 0 -10 -2 0 -9 22 -14 11 -65
-15 -69 -31 -5 -44 45 -18 65 17 11 17 13 2 13 -20 0 -34 -47 -20 -69 6 -10
24 -16 47 -16 l36 -1 0 68 c0 39 -4 68 -10 68 -5 0 -10 -11 -10 -25z"/>
<path d="M377 393 c-16 -16 -5 -44 24 -58 38 -20 35 -47 -6 -57 -29 -6 -29 -6
5 -5 30 2 35 6 38 29 3 21 -3 29 -25 40 -37 17 -36 41 2 49 l30 7 -31 1 c-17
0 -34 -2 -37 -6z"/>
<path d="M1353 335 c0 -38 2 -53 4 -32 2 20 2 52 0 70 -2 17 -4 1 -4 -38z"/>
<path d="M1508 393 c20 -4 22 -11 24 -66 l1 -62 6 60 c5 52 9 60 31 66 17 5 7
7 -30 7 -30 -1 -45 -3 -32 -5z"/>
<path d="M482 348 c-28 -28 -7 -78 33 -78 27 0 45 18 45 46 0 23 -26 51 -37
40 -3 -3 -1 -6 5 -6 17 0 25 -39 12 -55 -20 -24 -49 -18 -56 12 -5 19 -2 30
11 40 11 7 14 13 9 13 -6 0 -15 -5 -22 -12z"/>
<path d="M644 320 l1 -45 38 0 37 -1 0 43 c0 53 -18 57 -22 6 -2 -30 -7 -38
-23 -38 -16 0 -21 9 -26 40 l-7 40 2 -45z"/>
<path d="M751 338 c-14 -38 2 -63 40 -65 34 -1 34 -1 4 5 -36 9 -47 48 -19 69
17 12 17 13 1 13 -10 0 -21 -10 -26 -22z"/>
<path d="M840 315 c0 -25 5 -45 10 -45 6 0 10 20 10 45 0 25 -4 45 -10 45 -5
0 -10 -20 -10 -45z"/>
<path d="M897 353 c-14 -13 -7 -71 9 -77 31 -12 55 -6 65 18 12 25 -2 66 -23
66 -7 0 -7 -5 2 -14 6 -8 10 -25 8 -38 -4 -33 -52 -33 -56 0 -2 13 2 30 8 38
12 14 0 21 -13 7z"/>
<path d="M1011 310 l2 -45 6 40 c5 32 11 41 29 43 20 3 22 -1 22 -37 0 -23 5
-41 10 -41 12 0 13 60 2 78 -5 7 -23 11 -40 10 -31 -2 -32 -4 -31 -48z"/>
<path d="M1119 339 c-18 -35 3 -69 43 -68 l33 1 -30 7 c-24 5 -31 12 -33 35
-2 16 2 32 10 37 9 6 10 9 1 9 -7 0 -17 -10 -24 -21z"/>
<path d="M1177 340 c3 -11 9 -20 15 -20 5 0 4 9 -2 20 -6 11 -12 20 -14 20 -2
0 -2 -9 1 -20z"/>
<path d="M1224 348 c-4 -6 5 -21 21 -34 22 -17 25 -24 15 -28 -8 -2 -22 -7
-30 -9 -8 -3 -2 -6 13 -6 50 -2 45 41 -7 63 -7 3 -6 8 4 15 9 7 10 11 3 11 -6
0 -15 -5 -19 -12z"/>
<path d="M1399 339 c-25 -48 37 -95 70 -55 16 19 10 68 -9 74 -13 4 -13 3 -2
-11 22 -26 11 -62 -18 -62 -18 0 -26 6 -28 23 -2 13 2 30 8 38 9 9 9 14 2 14
-6 0 -16 -10 -23 -21z"/>
<path d="M1650 294 c0 -37 2 -65 5 -62 9 9 13 118 4 124 -5 3 -9 -25 -9 -62z"/>
<path d="M1714 344 c26 -26 17 -57 -19 -67 -16 -5 -15 -5 4 -4 13 1 28 9 34
18 13 21 0 69 -19 69 -14 0 -14 -2 0 -16z"/>
<path d="M1769 339 c-19 -35 3 -69 43 -68 28 2 29 2 8 6 -14 3 -30 9 -36 14
-13 11 -7 50 10 61 8 5 7 8 -1 8 -7 0 -17 -10 -24 -21z"/>
<path d="M1816 353 c6 -4 14 -15 17 -23 5 -11 6 -9 4 4 -1 11 -9 21 -17 23
-10 3 -11 2 -4 -4z"/>
<path d="M1870 313 c0 -24 5 -43 10 -43 6 0 10 16 10 35 0 22 6 37 17 44 14 7
12 9 -10 8 -25 -2 -27 -5 -27 -44z"/>
<path d="M1940 341 c0 -11 9 -23 20 -26 27 -9 25 -33 -2 -38 l-23 -4 23 -2
c33 -2 40 28 12 49 -13 10 -20 22 -16 29 4 6 2 11 -3 11 -6 0 -11 -9 -11 -19z"/>
<path d="M2024 346 c-3 -8 -4 -27 -2 -43 2 -23 8 -28 35 -31 27 -3 35 1 44 21
12 26 -2 67 -23 67 -7 0 -7 -5 2 -14 6 -8 10 -25 8 -38 -2 -17 -10 -23 -28
-23 -18 0 -26 6 -28 23 -2 13 2 30 8 38 9 10 9 14 1 14 -6 0 -14 -6 -17 -14z"/>
<path d="M2140 311 l4 -46 6 40 c4 32 10 41 28 43 20 3 22 -1 22 -37 0 -23 5
-41 10 -41 11 0 13 33 4 67 -5 19 -13 23 -43 21 l-36 -1 5 -46z"/>
<path d="M2296 349 c3 -6 0 -15 -7 -20 -10 -6 -11 -9 -1 -9 6 0 12 -11 12 -25
0 -14 5 -25 10 -25 12 0 13 15 4 59 -4 17 -11 31 -16 31 -5 0 -6 -5 -2 -11z"/>
<path d="M2403 315 c0 -27 2 -38 4 -22 2 15 2 37 0 50 -2 12 -4 0 -4 -28z"/>
<path d="M2463 353 l28 -4 -25 -34 c-14 -19 -26 -36 -26 -39 0 -3 17 -5 38 -5
30 2 32 3 10 6 -32 5 -35 15 -12 33 8 8 20 22 25 32 9 16 6 18 -28 17 -31 -2
-33 -3 -10 -6z"/>
<path d="M2577 349 c11 -10 7 -15 -18 -26 -42 -17 -36 -48 9 -49 32 -1 33 0
30 39 -2 25 -9 42 -18 45 -12 4 -13 2 -3 -9z m11 -46 c-4 -23 -48 -31 -48 -10
0 9 6 18 13 20 25 11 38 7 35 -10z"/>
<path d="M2796 345 c4 -9 0 -15 -7 -15 -10 -1 -9 -4 3 -11 9 -5 15 -16 12 -23
-3 -8 -1 -17 5 -21 7 -4 11 5 11 24 0 35 -9 61 -21 61 -4 0 -6 -7 -3 -15z"/>
<path d="M2850 341 c0 -11 9 -23 20 -26 27 -9 25 -33 -2 -38 -20 -4 -19 -4 5
-6 21 -1 27 4 27 19 0 10 -9 24 -21 30 -12 7 -18 18 -15 26 3 8 1 14 -4 14 -6
0 -10 -9 -10 -19z"/>
<path d="M2246 304 c-9 -22 1 -34 27 -33 18 1 19 2 4 6 -13 3 -17 11 -14 24 6
23 -8 26 -17 3z"/>
<path d="M2748 308 c-8 -22 3 -38 25 -37 19 1 19 2 4 6 -13 3 -17 11 -14 24 6
21 -8 27 -15 7z"/>
</g>
</svg>
